<!DOCTYPE svg PUBLIC "-//W3C//DTD SVG 1.1//EN" "http://www.w3.org/Graphics/SVG/1.1/DTD/svg11.dtd">
<svg xmlns="http://www.w3.org/2000/svg" viewBox="0 0 220 67">
<path fill="#1ca4dc" d="M21.24 34.506C15.058 46.884 10 57.234 10 57.506c0 .272 10.35.494 23 .494h23v-7H39.85l2.34-4.25c2.287-4.156 2.466-4.257 8.075-4.55L56 41.9v-3.45c0-3.276-.176-3.45-3.5-3.45-4.33 0-4.329-.404.013-9.025L56.025 19H74v-7H32.479L21.24 34.506m74 0C89.058 46.884 84 57.234 84 57.506c0 .272 10.125.494 22.5.494H129v-7h-7.5c-4.125 0-7.5-.113-7.5-.251 0-.137 3.513-7.225 7.806-15.75l7.805-15.499 9.195-.288 9.194-.287V12h-41.521L95.24 34.506m73.003.994L157.006 58l3.747-.003c3.305-.002 3.983-.444 5.749-3.75l2.002-3.747h22.992l2.002 3.747 2.002 3.748 7.75.002L211 58v-7h-11.542L190 32c-5.202-10.45-9.697-19-9.989-19-.293 0-5.588 10.125-11.768 22.5m8.328.071c-1.842 1.843-1.942 2.867-.536 5.495 2.089 3.902 8.965 1.656 8.965-2.929 0-1.643-3.015-4.137-5-4.137-1.021 0-2.564.707-3.429 1.571M64 54.5V58h10v-7H64v3.5m74 0V58h10v-7h-10v3.5" fill-rule="evenodd"/>
</svg>